<svg xmlns="http://www.w3.org/2000/svg" xmlns:xlink="http://www.w3.org/1999/xlink" baseProfile="tiny" version="1.2" viewBox="0 0 204.13 41.08"><defs><linearGradient id="a" x1="111.66" x2="67.79" y1="-.5" y2="28.97" data-name="Nueva muestra de degradado 2" gradientUnits="userSpaceOnUse"><stop offset="0" stop-color="#0c689a"/><stop offset="1" stop-color="#93c01f"/></linearGradient><linearGradient xlink:href="#a" id="b" x1="-30.35" x2="82.76" y1="35.88" y2="4.69" data-name="Nueva muestra de degradado 2"/></defs><g fill="#0c689a"><path d="M85.58 18.57c-1.53 0-2.84-.08-3.91-.23-1.07-.16-1.94-.47-2.6-.95q-.99-.72-1.44-2.16c-.3-.96-.45-2.25-.45-3.85s.15-2.8.45-3.74.78-1.65 1.44-2.12c.66-.48 1.53-.79 2.6-.95s2.38-.24 3.91-.24c1.84 0 3.35.11 4.54.32q1.785.315 2.64 1.29c.855.975.86 1.64.86 2.98h-2.19c0-.77-.16-1.35-.48-1.73s-.9-.64-1.74-.76c-.84-.13-2.05-.19-3.62-.19q-2.13 0-3.36.18c-.83.12-1.43.35-1.82.7s-.64.86-.76 1.54-.17 1.59-.17 2.73.06 2.12.17 2.83.37 1.24.76 1.59 1 .59 1.82.7c.83.12 1.95.17 3.36.17 1.2 0 2.18-.03 2.94-.1s1.35-.2 1.78-.41c.42-.2.71-.5.88-.88.16-.39.24-.9.24-1.54h2.19c0 1.06-.16 1.92-.48 2.56s-.8 1.13-1.45 1.45c-.65.33-1.48.54-2.5.66-1.01.11-2.21.17-3.61.17ZM103.53 18.57c-1.65 0-3-.09-4.07-.26s-1.86-.55-2.38-1.13-.78-1.48-.78-2.71.24-2.16.73-2.75c.49-.58 1.26-.96 2.32-1.14 1.06-.17 2.45-.26 4.18-.26 1.4 0 2.57.03 3.52.1.95.06 1.79.17 2.54.33-.02-1.06-.09-1.89-.21-2.5-.13-.61-.37-1.06-.71-1.35s-.86-.48-1.53-.57c-.67-.08-1.56-.12-2.68-.12-1.27 0-2.27.03-2.99.08-.72.06-1.24.15-1.57.3-.33.14-.53.35-.61.62q-.12.405-.12 1.05h-2.29c0-.86.12-1.55.35-2.07s.63-.92 1.2-1.19c.56-.27 1.34-.45 2.32-.55s2.22-.14 3.71-.14c1.61 0 2.9.1 3.88.31s1.73.58 2.24 1.11.86 1.29 1.04 2.25q.27 1.44.27 3.72v6.6h-2.29v-.94c-.27.29-.64.52-1.12.69s-1.11.3-1.9.39c-.79.08-1.8.13-3.03.13Zm0-1.86c1.36 0 2.44-.02 3.25-.05s1.42-.12 1.82-.26.67-.37.79-.69c.13-.32.19-.76.19-1.33v-2.11l-6.05-.07c-1.07-.02-1.94 0-2.59.04-.66.04-1.15.14-1.5.29q-.51.225-.69.69c-.12.31-.17.74-.17 1.27s.06.93.17 1.23.34.52.69.67q.51.21 1.5.27c.66.04 1.52.06 2.59.06ZM114.92 18.31V4.58h2.29V6.4c.34-.46.76-.85 1.27-1.16.5-.31 1.18-.54 2.03-.7.85-.15 1.96-.23 3.33-.23 1.8 0 3.21.17 4.25.52s1.77.97 2.21 1.87q.66 1.35.66 3.81v7.78h-2.3v-7.78c0-.94-.08-1.69-.24-2.27-.16-.57-.43-1-.82-1.3s-.92-.49-1.59-.59c-.68-.1-1.53-.15-2.58-.15-1.59 0-2.84.13-3.74.39q-1.365.39-1.92 1.23c-.37.56-.56 1.29-.56 2.19v8.27h-2.29ZM141.21 18.57c-1.65 0-3-.09-4.07-.26s-1.86-.55-2.38-1.13-.78-1.48-.78-2.71.24-2.16.73-2.75c.49-.58 1.26-.96 2.32-1.14 1.06-.17 2.45-.26 4.18-.26 1.4 0 2.57.03 3.52.1.95.06 1.79.17 2.54.33-.02-1.06-.09-1.89-.21-2.5-.13-.61-.37-1.06-.71-1.35s-.86-.48-1.53-.57c-.67-.08-1.56-.12-2.68-.12-1.27 0-2.27.03-2.99.08-.72.06-1.24.15-1.57.3-.33.14-.53.35-.61.62q-.12.405-.12 1.05h-2.29c0-.86.12-1.55.35-2.07s.63-.92 1.2-1.19c.56-.27 1.34-.45 2.32-.55s2.22-.14 3.71-.14c1.61 0 2.9.1 3.88.31s1.73.58 2.24 1.11.86 1.29 1.04 2.25q.27 1.44.27 3.72v6.6h-2.29v-.94c-.27.29-.64.52-1.12.69s-1.11.3-1.9.39c-.79.08-1.8.13-3.03.13Zm0-1.86c1.36 0 2.44-.02 3.25-.05s1.42-.12 1.82-.26.67-.37.79-.69c.13-.32.19-.76.19-1.33v-2.11l-6.05-.07c-1.07-.02-1.94 0-2.59.04-.66.04-1.15.14-1.5.29q-.51.225-.69.69c-.12.31-.17.74-.17 1.27s.06.93.17 1.23.34.52.69.67q.51.21 1.5.27c.66.04 1.52.06 2.59.06ZM152.79 18.31V4.58h2.29v1.9c.25-.41.51-.74.77-1.01s.6-.48 1.01-.64.98-.27 1.7-.34 1.66-.1 2.83-.1v1.92c-1.57 0-2.79.06-3.65.17s-1.48.3-1.85.57-.6.63-.68 1.1-.12 1.07-.12 1.79v8.39h-2.29ZM164.31 2.29V0h2.29v2.29zm0 16.02V5.34h2.29v12.97zM176.9 18.57c-1.65 0-3-.09-4.07-.26s-1.86-.55-2.38-1.13-.78-1.48-.78-2.71.24-2.16.73-2.75c.49-.58 1.26-.96 2.32-1.14 1.06-.17 2.45-.26 4.18-.26 1.4 0 2.57.03 3.52.1.95.06 1.79.17 2.54.33-.02-1.06-.09-1.89-.21-2.5-.13-.61-.37-1.06-.71-1.35s-.86-.48-1.53-.57c-.67-.08-1.56-.12-2.68-.12-1.27 0-2.27.03-2.99.08-.72.06-1.24.15-1.57.3-.33.14-.53.35-.61.62q-.12.405-.12 1.05h-2.29c0-.86.12-1.55.35-2.07s.63-.92 1.2-1.19c.56-.27 1.34-.45 2.32-.55s2.22-.14 3.71-.14c1.61 0 2.9.1 3.88.31s1.73.58 2.24 1.11.86 1.29 1.04 2.25q.27 1.44.27 3.72v6.6h-2.29v-.94c-.27.29-.64.52-1.12.69s-1.11.3-1.9.39c-.79.08-1.8.13-3.03.13Zm0-1.86c1.36 0 2.44-.02 3.25-.05s1.42-.12 1.82-.26.67-.37.79-.69c.13-.32.19-.76.19-1.33v-2.11l-6.05-.07c-1.07-.02-1.94 0-2.59.04-.66.04-1.15.14-1.5.29q-.51.225-.69.69c-.12.31-.17.74-.17 1.27s.06.93.17 1.23.34.52.69.67q.51.21 1.5.27c.66.04 1.52.06 2.59.06ZM196 18.57c-1.67 0-3.01-.06-4.02-.17s-1.78-.32-2.3-.62-.87-.73-1.05-1.29-.27-1.28-.27-2.17h2.19c0 .5.04.9.11 1.21s.27.54.61.7c.33.16.88.27 1.63.33s1.81.09 3.16.09q2.16 0 3.36-.09c.8-.06 1.37-.17 1.72-.33s.56-.4.64-.71.11-.72.11-1.23c0-.62-.06-1.08-.17-1.39s-.37-.52-.79-.63c-.41-.11-1.07-.17-1.98-.17l-5.46-.06c-1.41-.02-2.48-.13-3.22-.36-.74-.22-1.24-.61-1.51-1.17s-.41-1.36-.41-2.39c0-.96.15-1.7.45-2.23s.76-.9 1.4-1.12 1.46-.36 2.48-.4 2.25-.07 3.68-.07c1.69 0 3.04.05 4.03.16 1 .1 1.75.3 2.24.58.5.29.82.7.98 1.25.16.54.23 1.25.23 2.13h-2.19c0-.52-.04-.92-.11-1.22s-.26-.52-.58-.66q-.465-.21-1.53-.27c-.7-.04-1.69-.06-2.96-.06-1.45 0-2.57.02-3.37.05s-1.38.11-1.74.23q-.54.18-.66.57c-.08.26-.12.61-.12 1.07s.03.82.08 1.09.19.47.41.6c.22.14.59.22 1.09.27.5.04 1.21.07 2.12.08l4.71.05c1.42.02 2.49.13 3.22.35q1.11.33 1.5 1.2c.27.58.4 1.43.4 2.53 0 .99-.15 1.78-.44 2.35s-.75 1-1.39 1.27-1.47.45-2.51.53-2.3.12-3.8.12Z"/></g><path fill="#0c689a" d="M84.23 36.2c-1.13 0-2.1-.06-2.89-.17-.79-.12-1.43-.35-1.92-.71s-.84-.89-1.07-1.6c-.22-.71-.33-1.66-.33-2.84s.11-2.07.33-2.76.58-1.22 1.07-1.57 1.13-.59 1.92-.71 1.75-.18 2.89-.18c1.36 0 2.47.08 3.35.23s1.53.47 1.95.96.63 1.22.63 2.2h-1.62c0-.57-.12-1-.35-1.28-.24-.28-.66-.47-1.29-.56s-1.51-.14-2.68-.14c-1.04 0-1.87.04-2.48.13s-1.06.26-1.35.52c-.29.25-.47.63-.56 1.14s-.13 1.18-.13 2.02.04 1.57.13 2.09.27.91.56 1.18c.29.26.74.43 1.35.52.61.08 1.44.13 2.48.13.89 0 1.61-.03 2.18-.08s1-.15 1.31-.3.53-.37.65-.65q.18-.435.18-1.14h1.62c0 .79-.12 1.42-.35 1.89-.24.48-.59.83-1.07 1.07s-1.1.4-1.85.48-1.64.12-2.66.12ZM98.06 36.2c-1.13 0-2.1-.06-2.89-.17-.79-.12-1.43-.35-1.92-.71s-.84-.89-1.07-1.6c-.22-.71-.33-1.66-.33-2.84s.11-2.07.33-2.76.58-1.22 1.07-1.57 1.13-.59 1.92-.71 1.75-.18 2.89-.18 2.1.06 2.89.18 1.43.35 1.92.71c.49.35.84.87 1.07 1.57q.33 1.035.33 2.76c0 1.725-.11 2.13-.33 2.84s-.58 1.24-1.07 1.6-1.13.59-1.92.71c-.79.11-1.75.17-2.89.17m4.52-5.32c0-.84-.04-1.51-.13-2.02s-.27-.88-.56-1.14-.74-.43-1.34-.52-1.44-.13-2.49-.13-1.87.04-2.48.13-1.06.26-1.35.52c-.29.25-.47.63-.56 1.14s-.13 1.18-.13 2.02.04 1.57.13 2.09.27.91.56 1.18c.29.26.74.43 1.35.52.61.08 1.44.13 2.48.13s1.88-.04 2.49-.13 1.06-.26 1.34-.52c.29-.26.47-.65.56-1.18s.13-1.22.13-2.09M112.17 36.2c-1.13 0-2.1-.06-2.89-.17-.79-.12-1.43-.35-1.92-.71s-.84-.89-1.07-1.6c-.22-.71-.33-1.66-.33-2.84s.11-2.07.33-2.76.58-1.22 1.07-1.57 1.13-.59 1.92-.71 1.75-.18 2.89-.18c1.36 0 2.47.08 3.35.23s1.53.47 1.95.96.63 1.22.63 2.2h-1.62c0-.57-.12-1-.35-1.28-.24-.28-.66-.47-1.29-.56s-1.51-.14-2.68-.14c-1.04 0-1.87.04-2.48.13s-1.06.26-1.35.52c-.29.25-.47.63-.56 1.14s-.13 1.18-.13 2.02.04 1.57.13 2.09.27.91.56 1.18c.29.26.74.43 1.35.52.61.08 1.44.13 2.48.13.89 0 1.61-.03 2.18-.08s1-.15 1.31-.3.53-.37.65-.65q.18-.435.18-1.14h1.62c0 .79-.12 1.42-.35 1.89-.24.48-.59.83-1.07 1.07s-1.1.4-1.85.48-1.64.12-2.66.12ZM120.12 36.01V22.48h1.69v4.73c.25-.34.56-.62.94-.85q.555-.345 1.5-.51c.63-.12 1.45-.17 2.46-.17 1.33 0 2.37.13 3.14.39s1.31.72 1.63 1.38q.48.99.48 2.82v5.75h-1.7v-5.75c0-.69-.06-1.25-.18-1.67q-.18-.63-.6-.96c-.29-.22-.68-.36-1.18-.44-.5-.07-1.13-.11-1.9-.11-1.17 0-2.1.1-2.76.29-.67.19-1.14.5-1.42.91s-.41.95-.41 1.62v6.11h-1.69ZM145.81 33c0 .76-.11 1.35-.34 1.79-.23.43-.57.75-1.04.95-.46.2-1.05.33-1.77.38-.72.06-1.58.08-2.57.08-1.13 0-2.09-.06-2.88-.17-.79-.12-1.43-.35-1.91-.71s-.84-.89-1.06-1.6-.33-1.66-.33-2.84.11-2.07.32-2.76.56-1.22 1.04-1.57 1.11-.59 1.9-.71 1.74-.18 2.88-.18c1.3 0 2.37.09 3.22.27s1.49.53 1.91 1.04q.63.765.63 2.25v2.18h-10.2c0 .75.06 1.35.16 1.8q.15.675.6 1.02c.3.23.75.38 1.34.45s1.39.11 2.38.11c.89 0 1.61-.02 2.16-.05s.97-.11 1.25-.23.48-.3.58-.54.15-.56.15-.97h1.58Zm-5.76-5.92c-.96 0-1.73.04-2.31.11s-1.03.21-1.33.41c-.31.2-.51.5-.62.9s-.17.92-.17 1.58h8.58v-.85q0-.63-.15-1.05t-.57-.66c-.28-.16-.7-.27-1.25-.34s-1.28-.1-2.18-.1M153.73 36.2q-1.845 0-2.97-.12c-.75-.08-1.31-.23-1.7-.46-.38-.22-.64-.54-.78-.95-.13-.41-.2-.95-.2-1.6h1.62c0 .37.03.67.08.89.05.23.2.4.45.52s.65.2 1.2.25 1.33.07 2.34.07c1.06 0 1.89-.02 2.48-.07s1.01-.13 1.27-.25.42-.29.47-.52c.06-.23.08-.53.08-.91 0-.46-.04-.8-.12-1.03s-.28-.38-.58-.46c-.31-.08-.79-.12-1.46-.13l-4.03-.04c-1.04-.01-1.83-.1-2.38-.26s-.92-.45-1.12-.87-.3-1-.3-1.77q0-1.065.33-1.65c.22-.39.56-.66 1.03-.83s1.08-.26 1.83-.3c.75-.03 1.66-.05 2.72-.05 1.25 0 2.24.04 2.98.11.74.08 1.29.22 1.66.43s.61.52.72.92.17.93.17 1.57h-1.62c0-.38-.03-.68-.08-.9s-.19-.38-.43-.48c-.23-.1-.61-.17-1.13-.2s-1.25-.04-2.19-.04c-1.07 0-1.9.01-2.49.04-.59.02-1.02.08-1.29.17-.26.09-.43.23-.48.42-.06.19-.09.45-.09.79s.02.61.06.81.14.34.3.44.43.17.81.2q.555.045 1.56.06l3.48.04c1.04.01 1.84.1 2.38.26s.91.46 1.11.89.29 1.05.29 1.87c0 .73-.11 1.31-.32 1.73s-.56.74-1.03.94-1.09.33-1.85.39c-.77.06-1.7.09-2.8.09Z"/><path fill="#93c01f" d="M161.99 36.01v-1.69h1.69v1.69zM165.97 36.01V25.86h1.69v1.35c.25-.34.56-.62.94-.85q.555-.345 1.5-.51c.63-.12 1.45-.17 2.46-.17 1.33 0 2.37.13 3.14.39s1.31.72 1.63 1.38q.48.99.48 2.82v5.75h-1.7v-5.75c0-.69-.06-1.25-.18-1.67q-.18-.63-.6-.96c-.29-.22-.68-.36-1.18-.44-.5-.07-1.13-.11-1.9-.11-1.17 0-2.1.1-2.76.29-.67.19-1.14.5-1.42.91s-.41.95-.41 1.62v6.11h-1.69ZM191.65 33c0 .76-.11 1.35-.34 1.79-.23.43-.57.75-1.04.95-.46.2-1.05.33-1.77.38-.72.06-1.58.08-2.57.08-1.13 0-2.09-.06-2.88-.17-.79-.12-1.43-.35-1.91-.71s-.84-.89-1.06-1.6-.33-1.66-.33-2.84.11-2.07.32-2.76.56-1.22 1.04-1.57 1.11-.59 1.9-.71 1.74-.18 2.88-.18c1.3 0 2.37.09 3.22.27s1.49.53 1.91 1.04q.63.765.63 2.25v2.18h-10.2c0 .75.06 1.35.16 1.8q.15.675.6 1.02c.3.23.75.38 1.34.45s1.39.11 2.38.11c.89 0 1.61-.02 2.16-.05s.97-.11 1.25-.23.48-.3.58-.54.15-.56.15-.97h1.58Zm-5.76-5.92c-.96 0-1.73.04-2.31.11s-1.03.21-1.33.41c-.31.2-.51.5-.62.9s-.17.92-.17 1.58h8.58v-.85q0-.63-.15-1.05t-.57-.66c-.28-.16-.7-.27-1.25-.34s-1.28-.1-2.18-.1M198.53 36.01c-1.03 0-1.86-.1-2.48-.31s-1.07-.58-1.35-1.11-.42-1.28-.42-2.24V23.1h1.69v2.77h6.24v1.39h-6.24v5.09q0 .99.18 1.47c.12.32.36.53.73.63s.92.15 1.65.15c.65 0 1.16-.02 1.54-.06.37-.04.65-.15.82-.33.18-.18.29-.47.33-.89.05-.41.07-.99.07-1.73h1.5c0 .97-.06 1.76-.18 2.34s-.33 1.03-.64 1.33q-.465.45-1.29.6c-.825.15-1.27.15-2.14.15Z"/><path fill="url(#a)" d="M63.87 22.48c-.63 0-1.24.06-1.84.19-.59.12-1.17.3-1.71.53-.55.23-1.06.51-1.55.84a9.1 9.1 0 0 0-2.46 2.46c-.32.49-.61 1-.84 1.55a9.26 9.26 0 0 0-.72 3.55c0 .63.06 1.24.19 1.84.12.59.3 1.17.53 1.71s.51 1.06.84 1.55a9.1 9.1 0 0 0 2.46 2.46c.49.32 1 .61 1.55.84s1.12.41 1.71.53 1.21.19 1.84.19 1.24-.06 1.84-.19c.59-.12 1.17-.3 1.71-.53s1.06-.51 1.55-.84a9.06 9.06 0 0 0 3.83-5.72c.12-.59.19-1.21.19-1.84s-.06-1.24-.19-1.84c-.12-.59-.3-1.17-.53-1.71-.23-.55-.51-1.06-.84-1.55a9.1 9.1 0 0 0-2.46-2.46c-.49-.32-1-.61-1.55-.84s-1.12-.41-1.71-.53-1.21-.19-1.84-.19"/><path fill="url(#b)" d="M45.62 4.23H27.37c-.63 0-1.24.06-1.84.19-.59.12-1.17.3-1.71.53-.55.23-1.06.51-1.55.84a9.06 9.06 0 0 0-3.83 5.72c-.12.59-.19 1.21-.19 1.84s-.06 1.24-.19 1.84c-.12.59-.3 1.17-.53 1.71-.23.55-.51 1.06-.84 1.55a9.06 9.06 0 0 1-5.72 3.83c-.59.12-1.21.19-1.84.19s-1.24.06-1.84.19c-.59.12-1.17.3-1.71.53-.55.23-1.06.51-1.55.84A9.06 9.06 0 0 0 .2 29.75c-.12.59-.19 1.21-.19 1.84s.06 1.24.19 1.84c.12.59.3 1.17.53 1.71.23.55.51 1.06.84 1.55a9.06 9.06 0 0 0 5.72 3.83c.59.12 1.21.19 1.84.19s1.24-.06 1.84-.19 1.17-.3 1.71-.53 1.06-.51 1.55-.84a9.1 9.1 0 0 0 2.46-2.46c.32-.49.61-1 .84-1.55s.41-1.12.53-1.71.19-1.21.19-1.84.06-1.24.19-1.84c.12-.59.3-1.17.53-1.71.23-.55.51-1.06.84-1.55a9.06 9.06 0 0 1 5.72-3.83 9.3 9.3 0 0 1 1.84-.19h18.25c.63 0 1.24-.06 1.84-.19.59-.12 1.17-.3 1.71-.53s1.06-.51 1.55-.84a9.06 9.06 0 0 0 3.83-5.72c.12-.59.19-1.21.19-1.84s-.06-1.24-.19-1.84c-.12-.59-.3-1.17-.53-1.71s-.51-1.06-.84-1.55a9.06 9.06 0 0 0-5.72-3.83 9.3 9.3 0 0 0-1.84-.19"/></svg>