<svg xmlns="http://www.w3.org/2000/svg" baseProfile="tiny" version="1.2" viewBox="0 0 204.13 40.42"><g fill="#ffec00"><path d="M86.47 18.43c-1.52 0-2.82-.08-3.88-.23s-1.92-.47-2.58-.95-1.13-1.19-1.43-2.15c-.3-.95-.45-2.23-.45-3.82s.15-2.78.45-3.71.78-1.63 1.43-2.11c.65-.47 1.51-.79 2.58-.95s2.36-.24 3.88-.24c1.82 0 3.32.1 4.5.31s2.05.64 2.62 1.28.85 1.63.85 2.96h-2.18c0-.77-.16-1.34-.47-1.72-.32-.38-.89-.63-1.73-.76s-2.04-.19-3.6-.19c-1.4 0-2.52.06-3.34.18s-1.42.35-1.81.69q-.585.51-.75 1.53c-.165 1.02-.17 1.58-.17 2.71s.06 2.1.17 2.8.37 1.23.75 1.58c.39.35.99.58 1.81.7.82.11 1.93.17 3.34.17 1.19 0 2.17-.03 2.92-.1s1.34-.2 1.76-.4.71-.49.87-.88q.24-.57.24-1.53h2.18c0 1.06-.16 1.9-.47 2.54q-.48.96-1.44 1.44c-.65.32-1.47.54-2.48.65s-2.2.17-3.58.17ZM104.28 18.43c-1.63 0-2.98-.09-4.04-.25-1.06-.17-1.85-.54-2.37-1.12s-.77-1.47-.77-2.69.24-2.15.73-2.73 1.25-.96 2.31-1.13c1.05-.17 2.44-.26 4.15-.26 1.39 0 2.55.03 3.49.09q1.41.09 2.52.33c-.02-1.05-.09-1.88-.21-2.48-.13-.6-.36-1.05-.71-1.34s-.85-.48-1.52-.56-1.55-.12-2.66-.12c-1.26 0-2.25.03-2.96.08-.71.06-1.23.15-1.56.3-.32.14-.53.35-.61.62s-.12.61-.12 1.04h-2.27c0-.85.12-1.54.35-2.06s.63-.91 1.19-1.18 1.33-.45 2.3-.54 2.2-.14 3.69-.14c1.59 0 2.88.1 3.85.31.97.2 1.72.57 2.22 1.11s.85 1.28 1.03 2.23q.27 1.425.27 3.69v6.55h-2.27v-.93q-.405.42-1.11.69c-.705.27-1.1.3-1.89.38s-1.79.13-3.01.13Zm0-1.84c1.35 0 2.43-.02 3.23-.05s1.41-.12 1.8-.26c.4-.14.66-.37.79-.69s.19-.76.19-1.32v-2.09l-6.01-.07c-1.07-.02-1.92 0-2.57.04s-1.15.14-1.48.28c-.34.15-.57.38-.68.69s-.17.73-.17 1.26.06.92.17 1.22.34.52.68.66.83.23 1.48.27 1.51.06 2.57.06M115.59 18.17V4.54h2.27v1.81c.34-.46.76-.84 1.26-1.15q.75-.465 2.01-.69c.84-.15 1.94-.23 3.31-.23 1.78 0 3.19.17 4.22.52q1.545.525 2.19 1.86c.43.89.65 2.15.65 3.79v7.72h-2.28v-7.72q0-1.395-.24-2.25t-.81-1.29c-.57-.435-.91-.49-1.58-.59s-1.52-.15-2.56-.15c-1.58 0-2.82.13-3.71.39-.9.26-1.53.67-1.91 1.22-.37.56-.56 1.28-.56 2.17v8.21h-2.27ZM141.68 18.43c-1.63 0-2.98-.09-4.04-.25-1.06-.17-1.85-.54-2.37-1.12s-.77-1.47-.77-2.69.24-2.15.73-2.73 1.25-.96 2.31-1.13c1.05-.17 2.44-.26 4.15-.26 1.39 0 2.55.03 3.49.09q1.41.09 2.52.33c-.02-1.05-.09-1.88-.21-2.48-.13-.6-.36-1.05-.71-1.34s-.85-.48-1.52-.56-1.55-.12-2.66-.12c-1.26 0-2.25.03-2.96.08-.71.06-1.23.15-1.56.3-.32.14-.53.35-.61.62s-.12.61-.12 1.04h-2.27c0-.85.12-1.54.35-2.06s.63-.91 1.19-1.18 1.33-.45 2.3-.54 2.2-.14 3.69-.14c1.59 0 2.88.1 3.85.31.97.2 1.72.57 2.22 1.11s.85 1.28 1.03 2.23q.27 1.425.27 3.69v6.55h-2.27v-.93q-.405.42-1.11.69c-.705.27-1.1.3-1.89.38s-1.79.13-3.01.13Zm0-1.84c1.35 0 2.43-.02 3.23-.05s1.41-.12 1.8-.26c.4-.14.66-.37.79-.69s.19-.76.19-1.32v-2.09l-6.01-.07c-1.07-.02-1.92 0-2.57.04s-1.15.14-1.48.28c-.34.15-.57.38-.68.69s-.17.73-.17 1.26.06.92.17 1.22.34.52.68.66.83.23 1.48.27 1.51.06 2.57.06M153.18 18.17V4.54h2.27v1.88c.25-.4.51-.74.76-1.01.26-.27.59-.48 1.01-.64s.98-.27 1.69-.34 1.64-.1 2.8-.1v1.9c-1.56 0-2.77.06-3.63.17s-1.47.3-1.84.56-.6.63-.67 1.09-.12 1.06-.12 1.77v8.33h-2.27ZM164.61 2.27V0h2.27v2.27zm0 15.9V5.3h2.27v12.87zM177.1 18.43c-1.63 0-2.98-.09-4.04-.25-1.06-.17-1.85-.54-2.37-1.12s-.77-1.47-.77-2.69.24-2.15.73-2.73 1.25-.96 2.31-1.13c1.05-.17 2.44-.26 4.15-.26 1.39 0 2.55.03 3.49.09q1.41.09 2.52.33c-.02-1.05-.09-1.88-.21-2.48-.13-.6-.36-1.05-.71-1.34s-.85-.48-1.52-.56-1.55-.12-2.66-.12c-1.26 0-2.25.03-2.96.08-.71.06-1.23.15-1.56.3-.32.14-.53.35-.61.62s-.12.61-.12 1.04h-2.27c0-.85.12-1.54.35-2.06s.63-.91 1.19-1.18 1.33-.45 2.3-.54 2.2-.14 3.69-.14c1.59 0 2.88.1 3.85.31.97.2 1.72.57 2.22 1.11s.85 1.28 1.03 2.23q.27 1.425.27 3.69v6.55h-2.27v-.93q-.405.42-1.11.69c-.705.27-1.1.3-1.89.38s-1.79.13-3.01.13Zm0-1.84c1.35 0 2.43-.02 3.23-.05s1.41-.12 1.8-.26c.4-.14.66-.37.79-.69s.19-.76.19-1.32v-2.09l-6.01-.07c-1.07-.02-1.92 0-2.57.04s-1.15.14-1.48.28c-.34.15-.57.38-.68.69s-.17.73-.17 1.26.06.92.17 1.22.34.52.68.66.83.23 1.48.27 1.51.06 2.57.06M196.06 18.43c-1.66 0-2.99-.06-3.99-.17-1.01-.11-1.77-.32-2.28-.62s-.86-.73-1.04-1.28-.27-1.27-.27-2.15h2.18c0 .5.04.9.11 1.2s.27.54.6.7.87.27 1.61.33 1.79.09 3.14.09q2.145 0 3.33-.09t1.71-.33c.35-.16.56-.4.63-.7s.11-.71.11-1.22c0-.62-.06-1.08-.17-1.38-.11-.31-.37-.51-.78-.62s-1.07-.16-1.96-.17l-5.42-.06c-1.4-.02-2.46-.13-3.19-.35q-1.095-.33-1.5-1.17c-.27-.56-.4-1.35-.4-2.37 0-.95.15-1.69.44-2.21s.76-.89 1.39-1.11 1.45-.35 2.46-.4q1.515-.06 3.66-.06c1.68 0 3.01.05 4 .15s1.73.3 2.22.58.82.7.97 1.24.23 1.24.23 2.11h-2.18c0-.51-.03-.92-.11-1.21-.07-.3-.26-.51-.57-.65s-.82-.23-1.51-.27q-1.05-.06-2.94-.06c-1.44 0-2.55.02-3.35.05s-1.37.11-1.73.22c-.36.12-.57.31-.65.56-.08.26-.12.61-.12 1.06s.03.82.08 1.08.19.46.41.6q.33.195 1.08.27c.5.04 1.2.07 2.1.08l4.67.05c1.4.02 2.47.13 3.2.35s1.23.62 1.49 1.2.4 1.42.4 2.51c0 .99-.14 1.76-.43 2.33s-.75.99-1.38 1.26-1.46.45-2.49.53-2.29.12-3.77.12Z"/></g><path fill="#fff" d="M85.13 35.93c-1.12 0-2.08-.06-2.87-.17s-1.42-.35-1.91-.7-.84-.88-1.06-1.59c-.22-.7-.33-1.65-.33-2.82s.11-2.06.33-2.74c.22-.69.57-1.21 1.06-1.56.48-.35 1.12-.58 1.91-.7s1.74-.17 2.87-.17c1.35 0 2.46.08 3.33.23s1.52.47 1.94.95.63 1.21.63 2.19h-1.61c0-.57-.12-.99-.35-1.27s-.66-.47-1.28-.56-1.5-.14-2.66-.14c-1.04 0-1.86.04-2.46.13-.61.09-1.05.26-1.34.51s-.47.63-.56 1.13-.13 1.17-.13 2 .04 1.55.13 2.07.27.91.56 1.17c.28.26.73.43 1.34.52.61.08 1.43.13 2.46.13.88 0 1.6-.03 2.16-.07s.99-.15 1.3-.3.52-.36.64-.65c.12-.28.18-.66.18-1.13h1.61c0 .78-.12 1.41-.35 1.88s-.59.83-1.07 1.07q-.72.36-1.83.48t-2.64.12ZM98.86 35.93c-1.12 0-2.08-.06-2.87-.17s-1.42-.35-1.91-.7-.84-.88-1.06-1.59c-.22-.7-.33-1.65-.33-2.82s.11-2.06.33-2.74c.22-.69.57-1.21 1.06-1.56.48-.35 1.12-.58 1.91-.7s1.74-.17 2.87-.17 2.09.06 2.87.17c.78.12 1.42.35 1.9.7s.84.87 1.06 1.56.33 1.6.33 2.74-.11 2.12-.33 2.82c-.22.71-.57 1.23-1.06 1.59s-1.12.59-1.9.7-1.74.17-2.87.17m4.48-5.28c0-.83-.04-1.5-.13-2s-.27-.88-.56-1.13c-.28-.25-.73-.42-1.33-.51s-1.43-.13-2.47-.13-1.86.04-2.46.13c-.61.09-1.05.26-1.34.51s-.47.63-.56 1.13-.13 1.17-.13 2 .04 1.55.13 2.07.27.91.56 1.17c.28.26.73.43 1.34.52.61.08 1.43.13 2.46.13s1.87-.04 2.47-.13 1.05-.26 1.33-.52c.29-.26.47-.65.56-1.17s.13-1.21.13-2.07M112.86 35.93c-1.12 0-2.08-.06-2.87-.17s-1.42-.35-1.91-.7-.84-.88-1.06-1.59c-.22-.7-.33-1.65-.33-2.82s.11-2.06.33-2.74c.22-.69.57-1.21 1.06-1.56.48-.35 1.12-.58 1.91-.7s1.74-.17 2.87-.17c1.35 0 2.46.08 3.33.23s1.52.47 1.94.95.63 1.21.63 2.19h-1.61c0-.57-.12-.99-.35-1.27s-.66-.47-1.28-.56-1.5-.14-2.66-.14c-1.04 0-1.86.04-2.46.13-.61.09-1.05.26-1.34.51s-.47.63-.56 1.13-.13 1.17-.13 2 .04 1.55.13 2.07.27.91.56 1.17c.28.26.73.43 1.34.52.61.08 1.43.13 2.46.13.88 0 1.6-.03 2.16-.07s.99-.15 1.3-.3.52-.36.64-.65c.12-.28.18-.66.18-1.13h1.61c0 .78-.12 1.41-.35 1.88s-.59.83-1.07 1.07q-.72.36-1.83.48t-2.64.12ZM120.75 35.74V22.31h1.68V27c.25-.34.56-.62.93-.85s.87-.4 1.49-.51 1.44-.17 2.44-.17c1.32 0 2.36.13 3.12.38.76.26 1.3.71 1.62 1.37s.48 1.59.48 2.8v5.71h-1.69v-5.71c0-.69-.06-1.24-.17-1.66-.12-.42-.32-.74-.6-.95-.28-.22-.67-.36-1.17-.43s-1.12-.11-1.89-.11c-1.17 0-2.08.1-2.74.29s-1.13.49-1.41.91c-.27.41-.41.95-.41 1.6v6.07zM146.25 32.75c0 .75-.11 1.34-.34 1.77-.22.43-.57.75-1.03.94-.46.2-1.05.33-1.76.38-.71.06-1.56.08-2.55.08-1.12 0-2.08-.06-2.86-.17s-1.42-.35-1.9-.7-.83-.88-1.05-1.59c-.22-.7-.33-1.65-.33-2.82s.11-2.06.32-2.74c.21-.69.56-1.21 1.04-1.56s1.1-.58 1.88-.7 1.73-.17 2.85-.17c1.29 0 2.35.09 3.2.27s1.48.52 1.89 1.03c.42.51.63 1.25.63 2.23v2.16h-10.12c0 .75.06 1.34.16 1.79s.3.79.59 1.01c.3.23.74.38 1.33.45s1.38.11 2.36.11c.89 0 1.6-.02 2.15-.05s.96-.11 1.24-.23q.42-.18.57-.54t.15-.96h1.56Zm-5.72-5.88c-.95 0-1.71.03-2.29.1s-1.02.21-1.32.41-.51.5-.62.9-.16.92-.17 1.56h8.51V29c0-.42-.05-.77-.14-1.04-.1-.28-.28-.49-.56-.66-.28-.16-.69-.27-1.24-.34s-1.27-.1-2.16-.1ZM154.11 35.93c-1.22 0-2.21-.04-2.95-.12s-1.3-.23-1.69-.45c-.38-.22-.64-.54-.77-.94-.13-.41-.2-.94-.2-1.59h1.61c0 .37.03.66.08.89.05.22.2.4.45.52.24.12.64.2 1.19.25s1.32.07 2.32.07c1.05 0 1.88-.02 2.46-.07s1.01-.13 1.26-.25c.26-.12.41-.29.47-.52s.08-.53.08-.9c0-.45-.04-.8-.12-1.02-.08-.23-.27-.38-.58-.46-.3-.08-.79-.12-1.45-.13l-4-.04c-1.03-.01-1.82-.1-2.36-.26s-.91-.45-1.11-.86-.3-1-.3-1.75c0-.71.11-1.25.33-1.64.22-.38.56-.66 1.03-.82s1.07-.26 1.82-.29 1.65-.05 2.7-.05c1.24 0 2.23.04 2.96.11.73.08 1.28.22 1.64.43s.6.51.72.91c.11.4.17.92.17 1.56h-1.61c0-.38-.03-.68-.08-.9q-.075-.33-.42-.48c-.23-.1-.6-.17-1.12-.2s-1.24-.04-2.17-.04c-1.06 0-1.89.01-2.47.03-.59.02-1.01.08-1.28.17-.26.09-.42.23-.48.41q-.09.285-.09.78c0 .495.02.6.06.8.04.19.14.34.3.44s.43.16.8.2c.37.03.89.05 1.55.06l3.45.03c1.04.01 1.83.1 2.36.26.54.16.91.45 1.1.88.2.43.29 1.05.29 1.86 0 .73-.11 1.3-.32 1.72q-.315.63-1.02.93c-.47.2-1.08.33-1.84.39s-1.69.09-2.78.09Z"/><path fill="#93c01f" d="M162.31 35.74v-1.68h1.68v1.68zM166.26 35.74V25.67h1.68v1.34c.25-.34.56-.62.93-.85s.87-.4 1.49-.51 1.44-.17 2.44-.17c1.32 0 2.36.13 3.12.38.76.26 1.3.71 1.62 1.37s.48 1.59.48 2.8v5.71h-1.69v-5.71c0-.69-.06-1.24-.17-1.66-.12-.42-.32-.74-.6-.95-.28-.22-.67-.36-1.17-.43s-1.12-.11-1.89-.11c-1.17 0-2.08.1-2.74.29s-1.13.49-1.41.91c-.27.41-.41.95-.41 1.6v6.07h-1.68ZM191.75 32.75c0 .75-.11 1.34-.34 1.77-.22.43-.57.75-1.03.94-.46.2-1.05.33-1.76.38-.71.06-1.56.08-2.55.08-1.12 0-2.08-.06-2.86-.17s-1.42-.35-1.9-.7-.83-.88-1.05-1.59c-.22-.7-.33-1.65-.33-2.82s.11-2.06.32-2.74c.21-.69.56-1.21 1.04-1.56s1.1-.58 1.88-.7 1.73-.17 2.85-.17c1.29 0 2.35.09 3.2.27s1.48.52 1.89 1.03c.42.51.63 1.25.63 2.23v2.16h-10.12c0 .75.06 1.34.16 1.79s.3.79.59 1.01c.3.23.74.38 1.33.45s1.38.11 2.36.11c.89 0 1.6-.02 2.15-.05s.96-.11 1.24-.23q.42-.18.57-.54t.15-.96h1.56Zm-5.72-5.88c-.95 0-1.71.03-2.29.1s-1.02.21-1.32.41-.51.5-.62.9-.16.92-.17 1.56h8.51V29c0-.42-.05-.77-.14-1.04-.1-.28-.28-.49-.56-.66-.28-.16-.69-.27-1.24-.34s-1.27-.1-2.16-.1ZM198.57 35.74c-1.03 0-1.85-.1-2.46-.31s-1.07-.57-1.34-1.1c-.28-.53-.42-1.27-.42-2.23v-9.19h1.68v2.75h6.2v1.38h-6.2v5.05c0 .65.06 1.14.18 1.46q.18.48.72.63c.54.15.91.15 1.64.15q.975 0 1.53-.06c.37-.04.64-.15.82-.33.17-.18.28-.47.33-.88s.07-.98.07-1.72h1.49c0 .97-.06 1.74-.18 2.33s-.33 1.02-.64 1.32-.73.5-1.28.6-1.26.15-2.13.15Z"/><path fill="#ffec00" d="M9.06 22.31q.945 0 1.83.18c.59.12 1.16.3 1.7.53s1.06.51 1.54.83.93.7 1.34 1.11.78.86 1.11 1.34.61 1 .83 1.54a8.8 8.8 0 0 1 .71 3.53q0 .945-.18 1.83c-.12.59-.3 1.16-.53 1.7s-.51 1.06-.83 1.54-.7.93-1.11 1.34-.86.78-1.34 1.11-1 .61-1.54.83a8.8 8.8 0 0 1-3.53.71q-.945 0-1.83-.18c-.59-.12-1.16-.3-1.7-.53s-1.06-.51-1.54-.83-.93-.7-1.34-1.11-.78-.86-1.11-1.34-.61-1-.83-1.54-.41-1.11-.53-1.7Q0 32.3 0 31.37q0-.945.18-1.83c.12-.59.3-1.16.53-1.7s.51-1.06.83-1.54.7-.93 1.11-1.34.86-.78 1.34-1.11 1-.61 1.54-.83a8.8 8.8 0 0 1 3.53-.71"/><path fill="#fff" d="M27.17 4.2h18.08q.945 0 1.83.18c.59.12 1.16.3 1.7.53s1.06.51 1.54.83c.48.33.93.7 1.34 1.11s.78.86 1.11 1.34.61 1 .83 1.54.41 1.11.53 1.7q.18.885.18 1.83t.18 1.83c.12.59.3 1.16.53 1.7s.51 1.06.84 1.54.7.93 1.11 1.34.86.78 1.34 1.11 1 .61 1.54.83 1.11.41 1.7.53 1.2.18 1.82.18 1.24.06 1.83.18 1.16.3 1.7.53 1.06.51 1.54.83c.48.33.93.7 1.34 1.11s.78.86 1.11 1.34.61 1 .83 1.54a8.8 8.8 0 0 1 .71 3.53q0 .945-.18 1.83c-.12.59-.3 1.16-.53 1.7s-.51 1.06-.83 1.54c-.33.48-.7.93-1.11 1.34s-.86.78-1.34 1.11-1 .61-1.54.83a8.8 8.8 0 0 1-3.53.71c-.63 0-1.24-.06-1.82-.18s-1.16-.3-1.7-.53-1.06-.51-1.54-.83c-.48-.33-.93-.7-1.34-1.11s-.78-.86-1.11-1.34-.61-1-.84-1.54a8.8 8.8 0 0 1-.71-3.53q0-.945-.18-1.83c-.12-.59-.3-1.16-.53-1.7s-.51-1.06-.83-1.54c-.33-.48-.7-.93-1.11-1.34s-.86-.78-1.34-1.11-1-.61-1.54-.83a8.8 8.8 0 0 0-3.53-.71H27.17a8.838 8.838 0 0 1-3.52-.71c-.54-.23-1.06-.51-1.54-.83-.48-.33-.93-.7-1.34-1.11s-.78-.86-1.11-1.34-.61-1-.84-1.54a8.8 8.8 0 0 1-.71-3.53q0-.945.18-1.83c.12-.59.3-1.16.53-1.7s.51-1.06.84-1.54.7-.93 1.11-1.34.86-.78 1.34-1.11 1-.61 1.54-.83 1.11-.41 1.7-.53 1.2-.18 1.82-.18"/></svg>